<svg width="10" height="8" viewBox="0 0 10 8" fill="none" xmlns="http://www.w3.org/2000/svg">
<path d="M2.19992 0.5C2.09992 0.5 1.99991 0.499976 1.99991 0.599976C1.89991 0.699976 1.8999 0.699988 1.8999 0.799988V5.40002C1.8999 5.60002 1.99992 5.70001 2.19992 5.70001C2.89992 5.70001 4.09991 5.90001 4.99991 6.70001V2C4.99991 1.9 4.99991 1.89999 4.99991 1.79999C4.19991 0.699988 2.89992 0.5 2.19992 0.5Z" fill="white"/>
<path d="M8.5 5.5V0.900024C8.5 0.800024 8.49999 0.700012 8.39999 0.700012C8.29999 0.600012 8.30001 0.599976 8.20001 0.599976C7.50001 0.599976 6.2 0.800024 5.5 1.90002C5.5 1.90002 5.5 1.99998 5.5 2.09998V6.90002C6.3 6.00002 7.49999 5.90002 8.29999 5.90002C8.29999 5.80002 8.5 5.6 8.5 5.5Z" fill="white"/>
<path d="M9.19992 1.59998H8.99991V5.5C8.99991 5.9 8.59992 6.29999 8.19992 6.29999C7.59992 6.29999 6.5999 6.39998 5.8999 7.09998C7.0999 6.79998 8.39992 7.00001 9.19992 7.20001C9.29992 7.20001 9.39991 7.19998 9.49991 7.09998C9.59991 6.99998 9.59991 7.00002 9.59991 6.90002V2C9.49991 1.7 9.39992 1.59998 9.19992 1.59998Z" fill="white"/>
<path d="M1.3999 5.5V1.59998H1.19992C0.999921 1.59998 0.899902 1.70002 0.899902 1.90002V6.79999C0.899902 6.89999 0.899908 7 0.999908 7C1.09991 7.1 1.1999 7.09998 1.2999 7.09998C1.9999 6.89998 3.29991 6.7 4.59991 7C3.89991 6.3 2.8999 6.20001 2.2999 6.20001C1.7999 6.30001 1.3999 5.9 1.3999 5.5Z" fill="white"/>
</svg>
