<svg width="10" height="8" fill="none" xmlns="http://www.w3.org/2000/svg"><path d="M2.2.5c-.1 0-.2 0-.2.1-.1.1-.1.1-.1.2v4.6c0 .2.1.3.3.3.7 0 1.9.2 2.8 1V1.8C4.2.7 2.9.5 2.2.5ZM8.5 5.5V.9c0-.1 0-.2-.1-.2-.1-.1-.1-.1-.2-.1-.7 0-2 .2-2.7 1.3v5c.8-.9 2-1 2.8-1 0-.1.2-.3.2-.4Z" fill="#fff"/><path d="M9.2 1.6H9v3.9c0 .4-.4.8-.8.8-.6 0-1.6.1-2.3.8 1.2-.3 2.5-.1 3.3.1.1 0 .2 0 .3-.1.1-.1.1-.1.1-.2V2c-.1-.3-.2-.4-.4-.4ZM1.4 5.5V1.6h-.2c-.2 0-.3.1-.3.3v4.9c0 .1 0 .2.1.2.1.1.2.1.3.1.7-.2 2-.4 3.3-.1-.7-.7-1.7-.8-2.3-.8-.5.1-.9-.3-.9-.7Z" fill="#fff"/></svg>