<svg width="272" height="272" viewBox="0 0 272 272" fill="none" xmlns="http://www.w3.org/2000/svg">
<path d="M135.944 271.982C63.7528 271.982 3.70008 215.123 0.505785 142.293C-1.09136 106.198 11.6858 71.3799 35.9624 44.8673C60.5585 18.3547 93.7791 2.70259 129.875 1.10544C204.621 -2.08885 267.868 56.0473 271.062 130.474C274.257 205.221 216.121 268.468 141.694 271.662C140.096 271.982 138.18 271.982 135.944 271.982ZM136.263 11.6466C134.347 11.6466 132.75 11.6466 130.833 11.6466C97.6123 13.2438 66.6276 27.2987 44.2676 51.8947C21.5881 76.4908 10.0887 108.434 11.6858 141.654C13.283 174.875 27.3378 205.86 51.9339 228.22C76.5299 250.899 108.473 262.399 141.694 260.802C210.371 257.927 264.035 199.471 261.16 130.794C259.563 97.5731 245.508 66.5885 220.912 44.2284C197.274 23.1461 167.567 11.6466 136.263 11.6466Z" fill="#1B8FA9"/>
</svg>
