<svg width="11" height="8" fill="none" xmlns="http://www.w3.org/2000/svg"><path d="M1.1 7.1c.2.1.5 0 .8-.1.5-.2 1.1-.6 1.6-1.1.4-.4 1.1-.6 1.8-.6s1.5.2 1.8.6c.6.5 1.1.9 1.6 1.1.3.1.6.2.8.1.3-.1.5-.3.6-.6.1-.3.2-.8.2-1.4 0-.6-.1-1.2-.3-1.8-.2-.6-.3-1.1-.6-1.5C8.5.3 7.6.5 6.4.8c-.4.1-.8.2-1.2.2h-.1C4.7 1 4.3.9 3.9.8 2.8.5 1.8.3.9 1.8c-.2.4-.4 1-.6 1.5-.2.6-.3 1.2-.3 1.8 0 .6 0 1.1.2 1.4.4.3.6.5.9.6Zm-.3-2c0-.5.1-1.2.3-1.7.1-.5.3-1 .5-1.4.7-1.2 1.5-1 2.5-.8.4.1.8.2 1.2.2h.1c.5 0 .9-.1 1.2-.2 1-.2 1.8-.5 2.5.8.2.4.4.9.5 1.4.1.6.2 1.2.3 1.7 0 .6 0 1-.1 1.2-.1.2-.2.3-.3.3-.1 0-.3 0-.5-.1-.4-.2-1-.6-1.5-1-.5-.5-1.3-.7-2.2-.7-.8 0-1.7.2-2.2.7-.5.5-1 .9-1.5 1-.2.1-.4.1-.5.1-.1 0-.2-.1-.3-.3V5.1Z" fill="#fff"/><path d="M2.3 3.9c0 .2.1.3.2.5.1.1.3.2.5.2s.4-.1.5-.2c.1-.1.2-.3.2-.5.2 0 .3-.1.5-.2.1-.1.2-.3.2-.5s-.1-.4-.2-.5c-.1-.1-.3-.2-.5-.2 0-.2-.1-.3-.2-.4-.1-.1-.3-.2-.5-.2s-.4.1-.5.2c-.1.1-.2.3-.2.5-.2 0-.3.1-.5.2-.1.1-.2.3-.2.5s.1.4.2.5c.2 0 .3.1.5.1Zm-.2-.7c0-.1 0-.1.1-.2.1 0 .1-.1.2-.1h.2c.1 0 .2-.1.2-.2v-.2c0-.1 0-.1.1-.2s.1-.1.2-.1.1 0 .2.1c0 .1.1.1.1.2v.2c0 .1.1.2.2.2h.2c.1 0 .1 0 .2.1s.1.1.1.2 0 .1-.1.2-.1.1-.2.1h-.2c-.1 0-.2.1-.2.2v.2c0 .1 0 .1-.1.2s-.1.1-.2.1-.1 0-.2-.1-.1-.1-.1-.2v-.2c0-.1-.1-.2-.2-.2h-.2c-.1 0-.1 0-.2-.1s-.1-.2-.1-.2ZM7.6 1.8c.2 0 .4.2.4.4s-.2.4-.4.4-.4-.2-.4-.4c-.1-.2.1-.4.4-.4ZM7.6 3.6c.2 0 .4.2.4.4s-.2.4-.4.4-.4-.2-.4-.4c-.1-.2.1-.4.4-.4ZM6.7 2.7c.2 0 .4.2.4.4s-.2.4-.4.4-.4-.2-.4-.4c-.1-.2.1-.4.4-.4ZM8.4 2.7c.2 0 .4.2.4.4s-.2.4-.4.4-.4-.2-.4-.4.2-.4.4-.4Z" fill="#fff"/></svg>