<svg width="9" height="9" fill="none" xmlns="http://www.w3.org/2000/svg"><path d="M1.8 6.8c-.1-.1-.2-.1-.2 0l-.4.4c-.1.1-.1.2 0 .2l.5.5c.1.1.2.1.2 0l.4-.4c.1-.1.1-.2 0-.2l-.5-.5Zm-.1.7-.2-.2.1-.1.2.2-.1.1ZM2.1 6.4c-.2-.2-.4.1-.2.2l.5.5c.2.2.4-.1.2-.2l-.5-.5Z" fill="#fff"/><path d="m8.6 1.6-.2-.2c.2-.1.2-.2.2-.3 0-.2-.2-.2-.3-.2h-.4L7.7.7c-.2-.2-.4.1-.2.2h-.1L7.2.7C7 .5 6.8.8 7 .9h-.1L6.8.8c-.2-.2-.4.1-.2.2.1.1 0 .1 0 .2l-.1.4-2.1 2.1v-.6c0-.4.2-.7.4-1 .1-.1 0-.2-.1-.3C3.9 1.7 3 3 2.9 3.5c0 .2 0 .3-.1.5s-.4.3-.6.3h-.3c-.2 0-.4 0-.6.1-.4.1-.7.3-.9.7-.2.4-.3.9-.2 1.3.1.4.3.8.7 1.2.3.3.6.6 1 .8.4.2.7.3 1 .3.3 0 .5-.1.6-.1.5-.2.6-.7.7-1.1 0-.1.1-.2.1-.3.1-.4.4-.7.8-.9.1 0 .2-.1.3-.1.3-.1.7-.2.8-.6.1-.3-.1-.5-.4-.5l-.8.1h-.1l-.1-.1c0-.1-.1-.2-.1-.3l2.5-2.5h.3c.1 0 .2 0 .2-.1l.1.1c.2.2.4-.1.2-.2L7.9 2s0-.1.1-.1l.1.1c.2.2.4-.1.2-.2l-.2-.2.1-.1.2.2c.2.3.4.1.2-.1ZM2.9 6.4l-.2-.2 4-4 .2.2-4 4Zm1.5-.9c0 .1.1.2.2.3h.3l.8-.1c-.1.2-.4.3-.6.4-.1 0-.2.1-.3.1-.4.2-.8.6-1 1.1 0 .1-.1.2-.1.3-.1.4-.2.7-.5.9-.4.2-1 0-1.2-.2C1.4 8 .7 7.3.5 6.5c-.1-.3 0-.7.2-1 .1-.2.3-.4.7-.5h.8c.4 0 .7-.2.9-.5.1-.1.1-.3.1-.5.1-.4.3-.8.6-1.1.2-.2.4-.4.5-.4-.1.2-.2.5-.3.8V4.2L2.2 6c-.1.1-.1.2 0 .2l.5.5c.1.1.2.1.2 0l1.4-1.4c.1.1.1.1.1.2.1.1 0-.1 0 0Zm3-3.4h-.3l-.3-.3.1-.3c.1-.1.3-.2.7-.2h.5c-.3.2-.5.6-.6.8h-.1Z" fill="#fff"/><path d="M1.4 5.7c.1 0 .1-.1.1-.2s-.1-.1-.2-.1c-.2.1-.6.2-.6.7 0 .2.3.2.3 0 .1-.3.2-.3.4-.4.1 0-.2.1 0 0ZM2 5.6c.1 0 .2-.1.2-.2s-.1-.2-.2-.2-.2.1-.2.2c.1.1.1.2.2.2Z" fill="#fff"/></svg>