<svg width="8" height="8" viewBox="0 0 8 8" fill="none" xmlns="http://www.w3.org/2000/svg">
<path d="M1.8999 4.10004V6.80005C1.8999 7.00005 1.99992 7.10004 2.19992 7.10004C2.39992 7.10004 2.49991 7.00005 2.49991 6.80005V4.10004C2.49991 3.90004 2.39992 3.80005 2.19992 3.80005C1.99992 3.90005 1.8999 4.00004 1.8999 4.10004Z" fill="white"/>
<path d="M1 7.1001H1.60001V3.90015C1.60001 2.50015 2.70001 1.40015 4.10001 1.40015C5.50001 1.40015 6.60001 2.50015 6.60001 3.90015C6.60001 3.90015 6.60001 3.90012 6.60001 4.00012V7.20013H7.20001C7.60001 7.20013 8 6.80015 8 6.40015V4.70013C8 4.30013 7.79999 4.00015 7.39999 3.90015C7.39999 2.10015 5.9 0.600098 4 0.600098C2.2 0.600098 0.700006 2.10015 0.600006 3.90015C0.300006 4.00015 0 4.30013 0 4.70013V6.40015C0.2 6.80015 0.5 7.1001 1 7.1001Z" fill="white"/>
<path d="M5.80005 4.10004V6.80005C5.80005 7.00005 5.90007 7.10004 6.10007 7.10004C6.30007 7.10004 6.40005 7.00005 6.40005 6.80005V4.10004C6.40005 3.90004 6.30007 3.80005 6.10007 3.80005C5.90007 3.90005 5.80005 4.00004 5.80005 4.10004Z" fill="white"/>
</svg>
