<svg width="16" height="16" viewBox="0 0 16 16" fill="none" xmlns="http://www.w3.org/2000/svg">
<path d="M8.10007 15.6C12.4079 15.6 15.9001 12.1078 15.9001 7.79999C15.9001 3.49217 12.4079 0 8.10007 0C3.79225 0 0.300049 3.49217 0.300049 7.79999C0.300049 12.1078 3.79225 15.6 8.10007 15.6Z" fill="#1B8FA9"/>
<path d="M8.10007 15.1C4.10007 15.1 0.800049 11.8 0.800049 7.79999C0.800049 3.79999 4.10007 0.5 8.10007 0.5C12.1001 0.5 15.4001 3.79999 15.4001 7.79999C15.4001 11.9 12.1001 15.1 8.10007 15.1ZM8.10007 0.799988C4.20007 0.799988 1.00006 4.00002 1.00006 7.90002C1.00006 11.8 4.20007 15 8.10007 15C12.0001 15 15.2001 11.8 15.2001 7.90002C15.2001 3.90002 12.0001 0.799988 8.10007 0.799988Z" fill="white"/>
</svg>
