<svg width="9" height="7" fill="none" xmlns="http://www.w3.org/2000/svg"><path d="M5.6 3.7 4 2.7h-.1l-.1.1v2c0 .1 0 .1.1.1h.2l1.6-1 .1-.1c-.1 0-.2-.1-.2-.1Zm-1.5.9V3.1l1.2.7-1.2.8Z" fill="#fff"/><path d="M8.5.5H.4C.3.5.3.6.3.6v6.3c0 .1.1.1.1.1h8.1c.1 0 .1-.1.1-.1V.6c.1 0 0-.1-.1-.1ZM1.8 3.7H.6V2.4h1.2v1.3ZM.6 4h1.2v1.3H.6V4Zm1.5 1.4V.8H7v6.1H2.1V5.4Zm6.3-1.7H7.2V2.4h1.2v1.3ZM7.3 4h1.2v1.3H7.3V4ZM8.4.8v1.3H7.2V.8h1.2ZM.6.8h1.2v1.3H.6V.8Zm0 6.1V5.6h1.2v1.3H.6Zm7.8 0H7.2V5.6h1.2v1.3Z" fill="#fff"/></svg>