<svg width="9" height="7" viewBox="0 0 9 7" fill="none" xmlns="http://www.w3.org/2000/svg">
<path d="M5.60004 3.69995L4.00006 2.69995H3.90009L3.80005 2.79993V4.79993C3.80005 4.89993 3.80009 4.89996 3.90009 4.89996C3.90009 4.89996 3.90006 4.89996 4.00006 4.89996H4.10004L5.70007 3.89996L5.80005 3.79993C5.70005 3.79993 5.60004 3.69995 5.60004 3.69995ZM4.10004 4.59991V3.09991L5.30005 3.79993L4.10004 4.59991Z" fill="white"/>
<path d="M8.50006 0.5H0.400085C0.300085 0.5 0.300049 0.599976 0.300049 0.599976V6.90002C0.300049 7.00002 0.400085 7 0.400085 7H8.50006C8.60006 7 8.60004 6.90002 8.60004 6.90002V0.599976C8.70004 0.599976 8.60006 0.5 8.50006 0.5ZM1.80005 3.70001H0.600037V2.40002H1.80005V3.70001ZM0.600037 4H1.80005V5.29999H0.600037V4ZM2.10004 5.40002V0.799988H7.00006V6.90002H2.10004V5.40002ZM8.40009 3.70001H7.20007V2.40002H8.40009V3.70001ZM7.30005 4H8.50006V5.29999H7.30005V4ZM8.40009 0.799988V2.09998H7.20007V0.799988H8.40009ZM0.600037 0.799988H1.80005V2.09998H0.600037V0.799988ZM0.600037 6.90002V5.59998H1.80005V6.90002H0.600037ZM8.40009 6.90002H7.20007V5.59998H8.40009V6.90002Z" fill="white"/>
</svg>
