<svg width="7" height="7" fill="none" xmlns="http://www.w3.org/2000/svg"><path d="M4.2 3.5c.1 0 .1.1.1.1 0 .1-.1.1-.1.1-.1 0-.1-.1-.1-.1 0-.1.1-.1.1-.1ZM4.4 4.2c0-.1 0-.1-.1-.1s-.1 0-.1.1c0 .2-.2.4-.5.5-.3.1-.7.1-1-.2 0 0-.1-.1-.2 0 0 0-.1.1 0 .2.1.2.3.3.6.3h.3c.1 0 .3 0 .4-.1.3-.1.5-.3.6-.7Z" fill="#fff"/><path d="M5.9 3c-.2-.3-.5-.4-.9-.5.3-.2.6-.5.9-.7.3-.3.4-.5.3-.7-.1-.2-.4-.2-.9 0-.4.2-1 .4-1.6.7-.1.1-.2.1-.3.2-.1-.2 0-.4.1-.6.1-.1.1-.3.1-.5-.1-.2-.2-.3-.5-.3-.7 0-1.5.3-2 .8-.6.5-.9 1.2-1 2-.1.9.2 1.7.8 2.4.6.6 1.4 1 2.3 1 .5 0 .9-.1 1.3-.3.4-.2.7-.4 1-.6.3-.3.4-.6.6-.9.1-.3.2-.6.2-1 0-.3-.1-.7-.4-1Zm-2-.9c.5-.3 1-.5 1.5-.7.5-.2.7-.2.7-.1 0 0 0 .2-.3.4s-.6.5-1 .8c-.1.1-.3.2-.4.2l-.6.3c0-.1-.1-.2-.1-.3-.1-.1-.1-.2-.2-.3.1 0 .1-.1.2-.1-.1 0 0-.1.2-.2ZM2.5 3.5c0-.1 0-.1-.1-.2 0-.1-.1-.1-.1-.1.2-.2.5-.4.8-.6.1.1.1.2.2.3.1.1.1.2.1.3-.3.1-.6.3-.9.3Zm-.4-.2c.1 0 .1.1.1.1 0 .1.1.1 0 .2 0 .1-.1.2-.2.3-.1.1-.5.1-.8.1.1-.3.4-.6.5-.7h.4Zm4 .9c0 1.2-1.1 2.5-2.8 2.5-.8 0-1.6-.3-2.1-.9C.7 5.2.4 4.4.5 3.6.6 2.2 1.9 1 3.3 1c.1 0 .2 0 .2.1v.2c-.2.3-.3.6-.1.9-.1 0-.1.1-.2.1-.4.3-.7.5-.9.7-.2-.1-.3 0-.5 0-.3.1-.6.8-.6 1v.1l.1.1h.5c.3 0 .5 0 .7-.1.1-.1.3-.2.3-.4.3-.1.7-.2 1.1-.4.2-.1.5-.2.7-.4.1-.1.2-.1.4-.2.7.1 1.1.8 1.1 1.5Z" fill="#fff"/><path d="M2.3 2.4c.3 0 .5-.2.5-.5s-.2-.5-.5-.5-.5.2-.5.5.2.5.5.5Zm0-.7c.1 0 .2.1.2.2s-.1.2-.2.2-.2-.1-.2-.2.1-.2.2-.2ZM1.7 4.7c-.3 0-.5.2-.5.5s.2.5.5.5.5-.2.5-.5-.2-.5-.5-.5Zm0 .7c-.1 0-.2-.1-.2-.2s.1-.2.2-.2.2.1.2.2-.1.2-.2.2ZM2.9 5.4c-.3 0-.5.2-.5.5s.2.5.5.5.5-.2.5-.5c0-.2-.2-.5-.5-.5Zm0 .8c-.1 0-.2-.1-.2-.2s.1-.2.2-.2.2.1.2.2-.1.2-.2.2ZM4.4 5.2c-.3 0-.5.2-.5.5s.2.5.5.5.5-.2.5-.5c-.1-.3-.3-.5-.5-.5Zm0 .7c-.1 0-.2-.1-.2-.2s.1-.2.2-.2.2.1.2.2-.1.2-.2.2ZM5.3 4c-.3 0-.5.2-.5.5s.2.5.5.5.5-.2.5-.5-.2-.5-.5-.5Zm0 .7c-.1 0-.2-.1-.2-.2s.1-.2.2-.2.2.1.2.2c.1.1 0 .2-.2.2Z" fill="#fff"/></svg>