<svg width="9" height="8" fill="none" xmlns="http://www.w3.org/2000/svg"><path d="M7.9 1.9H6.7L6.2.5H2.8l-.5 1.4H2v-.7h-.8v.7H1c-.4 0-.6.3-.6.6v4c0 .4.3.7.7.7h6.8c.4 0 .7-.3.7-.7v-4c-.1-.3-.4-.6-.7-.6Zm-6.4-.4h.3v.4h-.3v-.4Zm6.7 5c0 .2-.2.4-.4.4H1c-.2 0-.4-.2-.4-.4v-4c0-.2.2-.4.4-.4h1.3L2.8.7h3.1l.5 1.4h1.3c.2 0 .4.2.4.4v4h.1Z" fill="#fff"/><path d="M4.4 1.7C3.1 1.7 2 2.8 2 4.1c0 1.3 1.1 2.4 2.4 2.4 1.3 0 2.4-1.1 2.4-2.4.1-1.3-1-2.4-2.4-2.4Zm0 4.6c-1.2 0-2.2-1-2.2-2.2 0-1.2 1-2.2 2.2-2.2 1.2 0 2.2 1 2.2 2.2 0 1.3-1 2.2-2.2 2.2Z" fill="#fff"/><path d="M4.4 2.5c-.9 0-1.6.7-1.6 1.6 0 .9.7 1.6 1.6 1.6C5.3 5.7 6 5 6 4.1c.1-.8-.7-1.6-1.6-1.6Zm0 3C3.7 5.5 3 4.9 3 4.1c0-.7.6-1.4 1.4-1.4.8 0 1.4.6 1.4 1.4 0 .8-.6 1.4-1.4 1.4ZM7.4 2.4c-.3 0-.5.2-.5.5s.2.5.5.5.5-.2.5-.5c.1-.3-.2-.5-.5-.5Zm0 .8c-.1 0-.3-.1-.3-.3 0-.1.1-.3.3-.3.1 0 .3.1.3.3 0 .2-.1.3-.3.3Z" fill="#fff"/></svg>