<svg width="9" height="8" viewBox="0 0 9 8" fill="none" xmlns="http://www.w3.org/2000/svg">
<path d="M7.89993 1.90002H6.69992L6.19992 0.5H2.7999L2.2999 1.90002H1.99991V1.20001H1.19992V1.90002H0.999908C0.599908 1.90002 0.399902 2.2 0.399902 2.5V6.5C0.399902 6.9 0.699915 7.20001 1.09991 7.20001H7.89993C8.29993 7.20001 8.59988 6.9 8.59988 6.5V2.5C8.49988 2.2 8.19993 1.90002 7.89993 1.90002ZM1.49991 1.5H1.7999V1.90002H1.49991V1.5ZM8.19992 6.5C8.19992 6.7 7.9999 6.90002 7.7999 6.90002H0.999908C0.799908 6.90002 0.599915 6.7 0.599915 6.5V2.5C0.599915 2.3 0.799908 2.09998 0.999908 2.09998H2.2999L2.7999 0.700012H5.8999L6.39993 2.09998H7.69992C7.89992 2.09998 8.09988 2.3 8.09988 2.5V6.5H8.19992Z" fill="white"/>
<path d="M4.39999 1.69995C3.09999 1.69995 2 2.79991 2 4.09991C2 5.39991 3.09999 6.49994 4.39999 6.49994C5.69999 6.49994 6.79999 5.39991 6.79999 4.09991C6.89999 2.79991 5.79999 1.69995 4.39999 1.69995ZM4.39999 6.29993C3.19999 6.29993 2.20001 5.29991 2.20001 4.09991C2.20001 2.89991 3.19999 1.89996 4.39999 1.89996C5.59999 1.89996 6.59998 2.89991 6.59998 4.09991C6.59998 5.39991 5.59999 6.29993 4.39999 6.29993Z" fill="white"/>
<path d="M4.39981 2.5C3.49981 2.5 2.7998 3.19998 2.7998 4.09998C2.7998 4.99998 3.49981 5.70001 4.39981 5.70001C5.29981 5.70001 5.99982 4.99998 5.99982 4.09998C6.09982 3.29998 5.29981 2.5 4.39981 2.5ZM4.39981 5.5C3.69981 5.5 2.99982 4.89998 2.99982 4.09998C2.99982 3.39998 3.59981 2.70001 4.39981 2.70001C5.19981 2.70001 5.7998 3.29998 5.7998 4.09998C5.7998 4.89998 5.19981 5.5 4.39981 5.5Z" fill="white"/>
<path d="M7.3999 2.40002C7.0999 2.40002 6.8999 2.60002 6.8999 2.90002C6.8999 3.20002 7.0999 3.40002 7.3999 3.40002C7.6999 3.40002 7.8999 3.20002 7.8999 2.90002C7.9999 2.60002 7.6999 2.40002 7.3999 2.40002ZM7.3999 3.20001C7.2999 3.20001 7.09985 3.10002 7.09985 2.90002C7.09985 2.80002 7.1999 2.59998 7.3999 2.59998C7.4999 2.59998 7.69989 2.70002 7.69989 2.90002C7.69989 3.10002 7.5999 3.20001 7.3999 3.20001Z" fill="white"/>
</svg>
