<svg width="11" height="6" fill="none" xmlns="http://www.w3.org/2000/svg"><path d="M10 2c-.1-.1-.2-.2-.4-.2h-.2v-.2c0-.3-.3-.6-.6-.6h-.3V.7c0-.2-.1-.3-.2-.4-.2-.2-.6-.2-.8 0-.1.1-.2.3-.2.4v1.5H3.4V.7c0-.2-.1-.3-.2-.4-.2-.2-.6-.2-.8 0-.1.1-.2.3-.2.4V1h-.3c-.2 0-.3.1-.4.2-.1.1-.2.2-.2.4v.2H1c-.1 0-.3.1-.4.2-.1.1-.1.3-.1.4v.9c0 .2.1.3.1.4.1.1.2.2.4.2h.2v.2c0 .1.1.3.2.4.1.1.3.2.4.2h.3V5c0 .2.1.3.2.4.1.1.3.2.4.2.2 0 .3-.1.4-.2.1-.1.2-.3.2-.4V3.5h3.9V5c0 .2.1.3.2.4.1.1.3.2.4.2.2 0 .3-.1.4-.2.1-.1.2-.3.2-.4v-.3h.3c.3 0 .6-.3.6-.6v-.2h.2c.1 0 .3-.1.4-.2.1-.1.1-.3.1-.4v-.9c.1-.2.1-.3 0-.4ZM1 3.6c-.1 0-.1 0-.2-.1s-.1-.1-.1-.2v-.9c0-.1 0-.2.1-.2 0-.1.1-.1.2-.1h.2v1.5H1Zm.8.7c-.1 0-.1 0-.2-.1 0 0-.1-.1-.1-.2V1.5c0-.1 0-.1.1-.2.1 0 .1-.1.2-.1h.3v3h-.3v.1Zm1.3.7c0 .1 0 .1-.1.2s-.3.1-.4 0c-.1-.1-.1-.1-.1-.2V.7c0-.1 0-.1.1-.2s.1-.1.2-.1.2 0 .2.1c.1.1.1.1.1.2V5Zm.3-1.9v-.6h3.9v.6H3.4ZM8.2 5c0 .1 0 .1-.1.2s-.3.1-.4 0c-.1-.1-.1-.1-.1-.2V.7c0-.1 0-.1.1-.2s.1-.1.2-.1.2 0 .2.1c.1.1.1.1.1.2V5Zm.9-.9c0 .2-.1.3-.3.3h-.3v-3h.3c.2 0 .3.1.3.3v2.4Zm.7-.8c0 .1 0 .2-.1.2 0 .1-.1.1-.2.1h-.2V2.1h.2c.1 0 .1 0 .2.1 0 .1.1.1.1.2v.9Z" fill="#fff"/></svg>